# xmcd
#
# Track frame offsets: 
#        150
#        15594
#        39348
#        57104
#        71536
#        88944
#        114080
#        129405
#        151714
#        171803
#        189344
#
# Disc length: 2762 seconds
#
# Revision: 0
# Processed by: cddbd v1.5.2PL0 Copyright (c) Steve Scherf et al.
# Submitted via: ExactAudioCopyFreeDBPlugin 1.0
#
DISCID=7c0ac80b
DTITLE=Tom 'Blues Man' Hunter - Down In The Bottom
DYEAR=2008
DGENRE=Blues
TTITLE0=I'm Burnt Out
TTITLE1=It Is What It Is
TTITLE2=I Want Some More Of That
TTITLE3=I've Got The Hots For You
TTITLE4=They Say Time Is Money
TTITLE5=What You Mean To Me
TTITLE6=Gulf Coast Stomp
TTITLE7=I Can Fix It
TTITLE8=Roll With The Punch
TTITLE9=Don't Hold Your Breath
TTITLE10=Down In The Bottoms
EXTD=
EXTT0=
EXTT1=
EXTT2=
EXTT3=
EXTT4=
EXTT5=
EXTT6=
EXTT7=
EXTT8=
EXTT9=
EXTT10=
PLAYORDER=
